<svg xmlns="http://www.w3.org/2000/svg" xmlns:xlink="http://www.w3.org/1999/xlink" preserveAspectRatio="xMidYMid" width="704.344" height="96.374" viewBox="0 0 704.344 96.374">
  <defs>
    <style>
      .cls-1 {
        fill: #070707;
        filter: url(#color-overlay-1);
        fill-rule: evenodd;
      }
    </style>

    <filter id="color-overlay-1" filterUnits="userSpaceOnUse">
      <feFlood flood-color="#e9b9cc"/>
      <feComposite operator="in" in2="SourceGraphic"/>
      <feBlend in2="SourceGraphic" result="solidFill"/>
    </filter>
  </defs>
  <path d="M702.910,95.332 L684.478,95.332 C682.942,95.332 681.886,94.629 681.310,93.220 L678.718,84.964 L658.174,84.964 L655.582,93.220 C655.006,94.629 653.950,95.332 652.414,95.332 L634.078,95.332 C632.734,95.332 632.285,94.629 632.734,93.220 L656.542,26.212 C656.669,25.701 656.974,25.221 657.454,24.773 C657.934,24.325 658.429,24.100 658.942,24.100 L677.950,24.100 C678.461,24.100 678.958,24.325 679.438,24.773 C679.918,25.221 680.221,25.701 680.350,26.212 L704.158,93.220 C704.605,94.629 704.189,95.332 702.910,95.332 ZM668.446,49.156 L663.934,67.300 L672.958,67.300 L668.446,49.156 ZM627.646,95.428 L605.950,95.428 C605.245,95.428 604.542,95.221 603.838,94.804 C603.133,94.389 602.590,93.892 602.206,93.316 L586.558,65.668 L586.558,93.316 C586.558,94.725 585.790,95.428 584.254,95.428 L565.726,95.428 C564.190,95.428 563.422,94.725 563.422,93.316 L563.422,26.212 C563.422,25.636 563.598,25.141 563.950,24.724 C564.301,24.309 564.829,24.100 565.534,24.100 L584.254,24.100 C584.766,24.100 585.277,24.292 585.790,24.676 C586.302,25.060 586.558,25.573 586.558,26.212 L586.558,50.020 L600.670,26.116 C601.054,25.540 601.614,25.045 602.350,24.628 C603.085,24.213 603.805,24.004 604.510,24.004 L627.358,24.004 C627.997,24.004 628.318,24.292 628.318,24.869 C628.381,25.190 628.222,25.605 627.838,26.116 L608.158,57.892 L628.414,93.316 C628.669,93.957 628.798,94.341 628.798,94.468 C628.798,95.109 628.414,95.428 627.646,95.428 ZM542.207,90.100 C539.582,92.116 536.495,93.637 532.943,94.660 C529.391,95.683 525.535,96.196 521.375,96.196 C518.942,96.196 516.479,95.875 513.983,95.236 C511.487,94.597 509.071,93.733 506.735,92.644 C504.398,91.557 502.190,90.292 500.111,88.852 C498.031,87.412 496.190,85.924 494.591,84.388 C493.502,83.301 492.926,82.516 492.863,82.036 C492.799,81.556 493.183,80.869 494.015,79.972 L503.711,68.836 C504.607,68.133 505.262,67.780 505.679,67.780 C506.095,67.780 506.911,68.164 508.127,68.932 C509.407,69.829 510.623,70.725 511.775,71.620 C512.927,72.517 514.046,73.333 515.135,74.068 C516.223,74.805 517.327,75.397 518.447,75.844 C519.566,76.293 520.703,76.516 521.855,76.516 C524.990,76.516 526.559,75.268 526.559,72.772 C526.559,71.941 526.031,71.029 524.975,70.036 C523.919,69.045 521.887,68.133 518.879,67.300 L519.071,67.300 C514.463,66.085 510.686,64.629 507.743,62.932 C504.799,61.237 502.495,59.349 500.831,57.268 C499.166,55.189 498.014,52.948 497.375,50.548 C496.735,48.148 496.415,45.604 496.415,42.916 C496.415,39.844 497.054,37.045 498.335,34.516 C499.615,31.989 501.407,29.829 503.711,28.037 C506.015,26.245 508.799,24.853 512.063,23.860 C515.327,22.869 518.942,22.372 522.911,22.372 C527.711,22.372 532.190,23.013 536.351,24.292 C540.511,25.573 544.415,28.069 548.063,31.780 C548.575,32.677 548.719,33.525 548.495,34.324 C548.270,35.125 547.775,35.973 547.007,36.868 L538.943,46.084 C538.175,46.981 537.374,47.301 536.543,47.044 C535.711,46.789 534.878,46.309 534.047,45.604 C532.574,44.325 530.911,43.269 529.055,42.436 C527.198,41.605 525.566,41.188 524.159,41.188 C522.943,41.188 521.807,41.428 520.751,41.908 C519.695,42.388 519.167,43.333 519.167,44.740 C519.167,45.508 519.422,46.165 519.935,46.708 C520.447,47.253 521.087,47.701 521.855,48.052 C522.623,48.405 523.487,48.709 524.447,48.964 C525.407,49.221 526.334,49.477 527.231,49.732 C530.687,50.821 533.839,51.940 536.687,53.092 C539.534,54.244 541.999,55.669 544.079,57.364 C546.158,59.061 547.775,61.141 548.927,63.604 C550.079,66.069 550.655,69.124 550.655,72.772 C550.655,76.485 549.902,79.797 548.399,82.708 C546.895,85.621 544.831,88.084 542.207,90.100 ZM480.672,95.332 L462.240,95.332 C461.215,95.332 460.479,94.821 460.032,93.796 L437.472,61.156 L437.472,93.220 C437.472,94.629 436.704,95.332 435.168,95.332 L417.600,95.332 C416.767,95.332 416.208,95.109 415.920,94.660 C415.632,94.213 415.488,93.765 415.488,93.316 L415.488,26.212 C415.488,25.636 415.663,25.141 416.016,24.724 C416.367,24.309 416.895,24.100 417.600,24.100 L437.952,24.100 C438.336,24.100 438.768,24.196 439.248,24.388 C439.728,24.580 440.127,24.964 440.448,25.540 L460.512,56.164 L460.512,26.212 C460.512,25.636 460.687,25.141 461.040,24.724 C461.391,24.309 461.919,24.100 462.624,24.100 L480.288,24.100 C481.183,24.100 481.791,24.261 482.112,24.580 C482.431,24.901 482.592,25.444 482.592,26.212 L482.592,93.700 C482.592,94.341 482.400,94.773 482.016,94.996 C481.632,95.221 481.183,95.332 480.672,95.332 ZM458.016,2.788 L453.600,12.868 C453.087,14.212 452.256,14.884 451.104,14.884 L440.928,14.884 C439.839,14.884 439.296,14.500 439.296,13.732 C439.296,13.413 439.359,13.093 439.488,12.773 C439.615,12.453 439.743,12.134 439.872,11.812 L444.096,2.020 C444.480,1.317 444.847,0.805 445.200,0.484 C445.551,0.165 446.047,0.004 446.688,0.004 L457.152,0.004 C457.983,0.004 458.400,0.357 458.400,1.060 C458.400,1.317 458.383,1.588 458.352,1.876 C458.319,2.164 458.208,2.469 458.016,2.788 ZM371.121,89.352 C370.861,89.612 370.471,89.742 369.951,89.742 C368.824,89.742 368.261,89.222 368.261,88.182 C368.261,87.837 368.346,87.555 368.521,87.337 C368.694,87.122 368.866,86.927 369.041,86.752 L396.471,59.972 L369.431,32.802 C369.084,32.543 368.911,32.153 368.911,31.633 C368.911,30.507 369.474,29.942 370.601,29.942 C370.946,29.942 371.251,30.030 371.511,30.203 C371.771,30.377 371.901,30.507 371.901,30.592 L400.761,59.322 C400.934,59.497 401.021,59.670 401.021,59.843 L400.761,60.363 L371.121,89.352 ZM353.017,84.332 L339.562,84.332 C338.550,84.332 338.044,83.827 338.044,82.814 L338.044,34.652 C338.044,34.238 338.170,33.883 338.424,33.583 C338.676,33.284 339.055,33.134 339.562,33.134 L353.017,33.134 C353.385,33.134 353.764,33.273 354.156,33.548 C354.546,33.824 354.742,34.193 354.742,34.652 L354.742,82.814 C354.742,83.827 354.166,84.332 353.017,84.332 ZM326.660,84.332 L290.711,84.332 C289.698,84.332 289.193,83.827 289.193,82.814 L289.193,34.652 C289.193,34.238 289.319,33.883 289.572,33.583 C289.824,33.284 290.204,33.134 290.711,33.134 L303.407,33.134 C303.774,33.134 304.142,33.273 304.511,33.548 C304.878,33.824 305.063,34.193 305.063,34.652 L305.063,69.635 L326.660,69.635 C327.074,69.635 327.429,69.763 327.729,70.015 C328.028,70.268 328.178,70.648 328.178,71.153 L328.178,82.676 C328.178,83.045 328.040,83.413 327.764,83.780 C327.488,84.149 327.119,84.332 326.660,84.332 ZM275.087,89.742 C274.567,89.742 274.177,89.612 273.917,89.352 L244.277,60.363 L244.017,59.843 C244.017,59.670 244.102,59.497 244.277,59.322 L273.137,30.592 C273.137,30.507 273.267,30.377 273.527,30.203 C273.787,30.030 274.089,29.942 274.437,29.942 C275.562,29.942 276.127,30.507 276.127,31.633 C276.127,32.153 275.952,32.543 275.607,32.802 L248.567,59.972 L275.997,86.752 C276.169,86.927 276.342,87.122 276.517,87.337 C276.689,87.555 276.777,87.837 276.777,88.182 C276.777,89.222 276.212,89.742 275.087,89.742 ZM222.434,85.684 C218.978,88.981 214.977,91.588 210.434,93.508 C205.889,95.428 201.089,96.388 196.034,96.388 C190.977,96.388 186.161,95.428 181.586,93.508 C177.009,91.588 173.009,88.981 169.586,85.684 C166.161,82.389 163.442,78.517 161.426,74.068 C159.410,69.621 158.402,64.869 158.402,59.812 C158.402,54.693 159.410,49.909 161.426,45.460 C163.442,41.013 166.161,37.125 169.586,33.796 C173.009,30.469 177.009,27.844 181.586,25.925 C186.161,24.004 190.977,23.044 196.034,23.044 C201.089,23.044 205.889,24.004 210.434,25.925 C214.977,27.844 218.978,30.469 222.434,33.796 C225.890,37.125 228.626,41.013 230.642,45.460 C232.658,49.909 233.666,54.693 233.666,59.812 C233.666,64.869 232.658,69.621 230.642,74.068 C228.626,78.517 225.890,82.389 222.434,85.684 ZM209.906,53.908 C209.105,52.149 208.034,50.613 206.690,49.300 C205.346,47.989 203.762,46.948 201.938,46.180 C200.114,45.412 198.177,45.028 196.130,45.028 C194.081,45.028 192.161,45.412 190.370,46.180 C188.577,46.948 187.010,47.989 185.666,49.300 C184.322,50.613 183.249,52.149 182.450,53.908 C181.649,55.669 181.250,57.573 181.250,59.620 C181.250,61.669 181.649,63.589 182.450,65.380 C183.249,67.173 184.322,68.725 185.666,70.036 C187.010,71.349 188.577,72.373 190.370,73.108 C192.161,73.845 194.081,74.212 196.130,74.212 C198.177,74.212 200.114,73.845 201.938,73.108 C203.762,72.373 205.346,71.349 206.690,70.036 C208.034,68.725 209.105,67.173 209.906,65.380 C210.705,63.589 211.106,61.669 211.106,59.620 C211.106,57.573 210.705,55.669 209.906,53.908 ZM148.610,95.332 L130.178,95.332 C128.578,95.332 127.745,94.629 127.682,93.220 L124.994,65.284 L118.946,93.220 C118.817,93.733 118.562,94.213 118.178,94.660 C117.794,95.109 117.346,95.332 116.834,95.332 L99.746,95.332 C99.233,95.332 98.753,95.125 98.306,94.708 C97.858,94.293 97.601,93.796 97.538,93.220 L91.394,65.476 L88.802,93.220 C88.738,94.629 87.938,95.332 86.402,95.332 L67.970,95.332 C66.626,95.332 65.954,94.725 65.954,93.508 L65.954,93.220 L72.482,26.212 C72.610,25.636 72.866,25.141 73.250,24.724 C73.634,24.309 74.177,24.100 74.882,24.100 L97.250,24.100 C98.594,24.100 99.554,24.805 100.130,26.212 L108.194,59.716 L116.450,26.212 C116.834,24.805 117.794,24.100 119.330,24.100 L141.602,24.100 C142.306,24.100 142.865,24.309 143.282,24.724 C143.698,25.141 143.969,25.636 144.098,26.212 L150.626,93.220 L150.626,93.604 C150.626,94.756 149.954,95.332 148.610,95.332 ZM49.347,90.100 C46.722,92.116 43.635,93.637 40.083,94.660 C36.531,95.683 32.675,96.196 28.515,96.196 C26.082,96.196 23.619,95.875 21.123,95.236 C18.627,94.597 16.211,93.733 13.875,92.644 C11.538,91.557 9.330,90.292 7.251,88.852 C5.171,87.412 3.330,85.924 1.731,84.388 C0.642,83.301 0.066,82.516 0.003,82.036 C-0.061,81.556 0.323,80.869 1.155,79.972 L10.851,68.836 C11.747,68.133 12.402,67.780 12.819,67.780 C13.235,67.780 14.051,68.164 15.267,68.932 C16.547,69.829 17.763,70.725 18.915,71.620 C20.067,72.517 21.186,73.333 22.275,74.068 C23.363,74.805 24.467,75.397 25.587,75.844 C26.706,76.293 27.843,76.516 28.995,76.516 C32.130,76.516 33.699,75.268 33.699,72.772 C33.699,71.941 33.171,71.029 32.115,70.036 C31.059,69.045 29.027,68.133 26.019,67.300 L26.211,67.300 C21.603,66.085 17.826,64.629 14.883,62.932 C11.939,61.237 9.635,59.349 7.971,57.268 C6.306,55.189 5.154,52.948 4.515,50.548 C3.875,48.148 3.555,45.604 3.555,42.916 C3.555,39.844 4.194,37.045 5.475,34.516 C6.755,31.989 8.547,29.829 10.851,28.037 C13.155,26.245 15.939,24.853 19.203,23.860 C22.467,22.869 26.082,22.372 30.051,22.372 C34.851,22.372 39.330,23.013 43.491,24.292 C47.651,25.573 51.555,28.069 55.203,31.780 C55.715,32.677 55.859,33.525 55.635,34.324 C55.410,35.125 54.915,35.973 54.147,36.868 L46.083,46.084 C45.315,46.981 44.514,47.301 43.683,47.044 C42.851,46.789 42.018,46.309 41.187,45.604 C39.714,44.325 38.051,43.269 36.195,42.436 C34.338,41.605 32.706,41.188 31.299,41.188 C30.083,41.188 28.947,41.428 27.891,41.908 C26.835,42.388 26.307,43.333 26.307,44.740 C26.307,45.508 26.562,46.165 27.075,46.708 C27.587,47.253 28.227,47.701 28.995,48.052 C29.763,48.405 30.627,48.709 31.587,48.964 C32.547,49.221 33.474,49.477 34.371,49.732 C37.827,50.821 40.979,51.940 43.827,53.092 C46.674,54.244 49.139,55.669 51.219,57.364 C53.298,59.061 54.915,61.141 56.067,63.604 C57.219,66.069 57.795,69.124 57.795,72.772 C57.795,76.485 57.042,79.797 55.539,82.708 C54.035,85.621 51.971,88.084 49.347,90.100 Z" class="cls-1"/>
</svg>
